<svg version="1.1" id="Libauth Logo" 
  xmlns="http://www.w3.org/2000/svg" x="0" y="0" viewBox="0 0 1052 275" xml:space="preserve">
  <style>
    .st0{fill:#336636}.st1{fill:#74c87a}
  </style>
  <g id="Artboard">
    <g id="Libauth-Logo">
      <path id="Path" class="st0" d="M158.6 243.6l-53.1 30.6v-60.9l53.1-30.6z"/>
      <path id="Path_1_" class="st1" d="M105.8 30.5L52.7 61.1 0 30.6 53.1 0z"/>
      <path id="Path_2_" class="st1" d="M158.6 182.7l-53.1 30.7-52.8-30.5 53.1-30.7z"/>
      <path id="Path_3_" class="st0" d="M52.7 61.1V122l.4 60.7 52.7-30.5V30.5z"/>
      <linearGradient id="Path_8_" gradientUnits="userSpaceOnUse" x1="-154" y1="520.8" x2="-154" y2="520.1" gradientTransform="matrix(105.5 0 0 -243.62 16302 126954.3)">
        <stop offset="0" stop-color="#51b258"/>
        <stop offset="1" stop-color="#3d8742"/>
      </linearGradient>
      <path id="Path_4_" fill="url(#Path_8_)" d="M53.1 122.2l-.3-61.1L0 30.6v182.7L53.1 244l52.4 30.2v-60.9l-52.4-30.6z"/>
      <path id="Path_5_" class="st0" d="M181.7 149.3l-53.1 30.6V119l53.1-30.6z"/>
      <path id="Path_6_" class="st1" d="M181.7 88.4L128.6 119 75.9 88.6 129 57.9z"/>
      <path id="Path_7_" fill="#51b258" d="M128.6 179.9l-52.7-30.5V88.6l52.7 30.4z"/>
      <path id="Path_16" d="M108.4 154.2l-14-8.1v-8c0-2.6 1-4.3 2.8-4.8l.5-.2-.5-.8a14.3 14.3 0 01-2.8-8c0-4.4 3.1-6.2 7-4 4.1 2.7 6.7 7.1 7 12 0 2.5-1 4.3-2.8 4.8l-.5.2.5.8c1.7 2.3 2.7 5.1 2.8 8v8.1z" fill="#29542b"/>
      <path id="Path_6" d="M257.7 35v182.4h65.2v22.2h-90.6V35h25.4zm118.4 0v26.3h-27.8V35h27.8zm-69.3 80.4v-22h67.8v124.2h43.2v21.9h-68.1V115.4h-42.9zm237.7 77.4c0 16.4-4 28.2-12.1 35.7-8.1 7.4-20.6 11.1-37.6 11.1h-57.3V35h24.8v64.3a38.9 38.9 0 0121.9-5.9h10.5c17.1 0 29.7 3.7 37.7 11 8 7.3 12 19.3 12 35.8l.1 52.6zm-63.2-77.4c-6.4 0-11.2 1.7-14.3 5.1a16.2 16.2 0 00-4.7 11v86.2h35.4c7.2 0 12.7-1.7 16.4-5 3.7-3.3 5.5-8 5.5-14v-64.3c0-6-1.8-10.7-5.5-14-3.7-3.3-9.2-5-16.4-5h-16.4zm185.6 124.2c-2.9-.1-5.8-.9-8.3-2.3-3-1.6-5.7-3.7-7.8-6.4-4.1 5.7-10.8 9-17.8 8.8h-26c-14.8 0-25.6-3-32.3-8.9-6.7-5.9-10.1-16.1-10.1-30.5v-5.8c0-30.2 14.2-45.3 42.7-45.3h36.3v-14.6c0-6-1.9-10.7-5.6-14-3.7-3.3-9.2-5-16.4-5h-45.3V93.4h42.4c17 0 29.5 3.7 37.6 11.1 8.1 7.4 12.1 19.3 12.1 35.7v70.1a7.4 7.4 0 003.4 6.6c2.2 1.5 6 2.2 11.2 2.2v20.4h-16.1zm-36.8-22c5.9 0 9.6-1.4 11.1-4.1a21 21 0 002.4-10.5v-32.1H607a17.1 17.1 0 00-17.6 17.6v14.6c0 5.1 1.2 8.8 3.5 11.1 2.3 2.3 6 3.5 11.1 3.5l26.1-.1zm146.5 15.3c-6.9 4.6-15.1 7-23.4 6.7h-9.9c-15.8 0-27.5-3.7-35.2-11.1-7.7-7.4-11.5-19.3-11.5-35.7V93.4h24.8v105.2c0 5.8 1.7 10.5 5.1 13.9s8 5.1 13.9 5.1h15.8c6.2 0 10.9-1.6 13.9-4.7 2.9-2.8 4.7-6.5 5.1-10.5v-109H800v146.1h-23.3v-6.6zm103.7 6.7c-9.9 0-17.5-3.2-22.8-9.6s-7.9-14.9-7.9-25.4v-89.2h-27.7v-22h27.7v-35h24.8v35.1h42.7v21.9h-42.7V206c0 4.3 1.1 7.3 3.2 9.1 2.1 1.8 5.5 2.6 9.9 2.6H917v21.9h-36.7zM969.4 35v64.3a38.4 38.4 0 0121.9-5.8h13.5c15.8 0 27.5 3.7 35.2 11.1 7.7 7.4 11.5 19.3 11.6 35.7v99.3h-24.8V134.4c0-5.8-1.7-10.5-5.1-13.9-3.4-3.4-8-5.1-13.9-5.1h-19.3c-6.2 0-10.9 1.6-14 4.8a15.8 15.8 0 00-5 10.4v109h-24.9V35h24.8z" fill="#343e3d"/>
    </g>
  </g>
</svg>
